<?xml version="1.0" encoding="UTF-8" standalone="no" ?>
<!DOCTYPE svg PUBLIC "-//W3C//DTD SVG 1.1//EN" "http://www.w3.org/Graphics/SVG/1.1/DTD/svg11.dtd">
<svg xmlns="http://www.w3.org/2000/svg" xmlns:xlink="http://www.w3.org/1999/xlink" version="1.1" width="604.46140625" height="220.32527999999996" xml:space="preserve">
<desc>Created with Fabric.js 1.6.0-rc.1</desc>
<defs></defs>
  <g transform="translate(356.64 138.58) scale(2.79 2.79)">
   <text font-family="Cargo Bay" font-size="40" font-weight="normal" style="stroke: none; stroke-width: 1; stroke-dasharray: none; stroke-linecap: butt; stroke-linejoin: miter; stroke-miterlimit: 10; fill: #fcfcfc; fill-rule: nonzero; opacity: 1;" ><tspan x="-85.74" y="8.98" style="stroke: none; stroke-width: 0; stroke-dasharray: none; stroke-linecap: butt; stroke-linejoin: miter; stroke-miterlimit: 4; fill: #fcfcfc; fill-rule: ; opacity: 1;">A</tspan><tspan x="-61.31" y="8.98" style="stroke: none; stroke-width: 0; stroke-dasharray: none; stroke-linecap: butt; stroke-linejoin: miter; stroke-miterlimit: 4; fill: #fcfcfc; fill-rule: ; opacity: 1;">B</tspan><tspan x="-36.66" y="8.98" style="stroke: none; stroke-width: 0; stroke-dasharray: none; stroke-linecap: butt; stroke-linejoin: miter; stroke-miterlimit: 4; fill: #fcfcfc; fill-rule: ; opacity: 1;">T</tspan><tspan x="-12.15" y="8.98" style="stroke: none; stroke-width: 0; stroke-dasharray: none; stroke-linecap: butt; stroke-linejoin: miter; stroke-miterlimit: 4; fill: #fcfcfc; fill-rule: ; opacity: 1;">O</tspan><tspan x="12.13" y="8.98" style="stroke: none; stroke-width: 0; stroke-dasharray: none; stroke-linecap: butt; stroke-linejoin: miter; stroke-miterlimit: 4; fill: #fcfcfc; fill-rule: ; opacity: 1;">I</tspan><tspan x="36.72" y="8.98" style="stroke: none; stroke-width: 0; stroke-dasharray: none; stroke-linecap: butt; stroke-linejoin: miter; stroke-miterlimit: 4; fill: #fcfcfc; fill-rule: ; opacity: 1;">E</tspan><tspan x="61.31" y="8.98" style="stroke: none; stroke-width: 0; stroke-dasharray: none; stroke-linecap: butt; stroke-linejoin: miter; stroke-miterlimit: 4; fill: #fcfcfc; fill-rule: ; opacity: 1;">S</tspan></text>
 </g>
<g style="stroke: none; stroke-width: 1; stroke-dasharray: none; stroke-linecap: butt; stroke-linejoin: miter; stroke-miterlimit: 10; fill: none; fill-rule: nonzero; opacity: 1;" transform="translate(10 10) scale(4.31 4.31)" >
  <path d="m 148.129 80.521 c 0 0 -4.015 -2.141 -7.629 3.883 c -3.614 6.024 2.409 9.637 9.235 8.834 c 6.826 -0.803 12.045 2.006 8.432 7.494 c 0 0 7.391 -7.523 1.18 -12.313 c 0 0 -2.164 -1.961 -6.399 -1.205 c -5.091 0.908 -4.043 -3.213 -2.222 -3.613 c 0 0 -2.998 0.936 -2.463 2.943 c 0 0 0.111 2.275 2.934 2.008 c 0 0 -8.244 0.832 -6.948 -3.748 c 1.295 -4.578 3.88 -4.283 3.88 -4.283 z" style="stroke: none; stroke-width: 1; stroke-dasharray: none; stroke-linecap: butt; stroke-linejoin: miter; stroke-miterlimit: 10; fill: #fafafa; fill-rule: nonzero; opacity: 1;" transform=" matrix(0.9999998273394511 0 0 0.9999998273394511 -139.41613592832928 -80.15138816101495) " stroke-linecap="round" />
  <polygon points="143.93,94.31 143.93,114.38 150.99,95.11 " style="stroke: none; stroke-width: 1; stroke-dasharray: none; stroke-linecap: butt; stroke-linejoin: miter; stroke-miterlimit: 10; fill: #ffffff; fill-rule: nonzero; opacity: 1;" transform="  matrix(0.9999998273394511 0 0 0.9999998273394511 -139.41613592832928 -80.15138816101495) "/>
  <polygon points="150.47,101.46 156.89,101.46 162.58,113.1 " style="stroke: none; stroke-width: 1; stroke-dasharray: none; stroke-linecap: butt; stroke-linejoin: miter; stroke-miterlimit: 10; fill: #ffffff; fill-rule: nonzero; opacity: 1;" transform="  matrix(0.9999998273394511 0 0 0.9999998273394511 -139.41613592832928 -80.15138816101495) "/>
  <path d="m 152.433 90.04 c 0 0 3.667 -2.166 6.834 -0.25 c 2.084 1.262 3.316 5.084 -0.575 10.355 c 0 0 7.075 -12.688 -6.009 -8.703 c 0 0 -7.583 1.598 -8.75 -2.568 c 0 0 1.917 3.5 8.5 1.166 z" style="stroke: none; stroke-width: 1; stroke-dasharray: none; stroke-linecap: butt; stroke-linejoin: miter; stroke-miterlimit: 10; fill: #200540; fill-rule: nonzero; opacity: 1;" transform=" matrix(0.9999998273394511 0 0 0.9999998273394511 -139.41613592832928 -80.15138816101495) " stroke-linecap="round" />
</g>
</svg>